<svg width="131" height="51" viewBox="0 0 131 51" fill="none" xmlns="http://www.w3.org/2000/svg">
<path d="M75.1667 25.5C75.1667 22.6224 74.2591 19.8721 72.444 17.249C70.6289 14.626 68.1999 12.3682 65.1569 10.4756C62.1139 8.58301 58.4837 7.07227 54.2663 5.94336C50.0488 4.81445 45.6267 4.25 41 4.25C36.3733 4.25 31.9512 4.81445 27.7337 5.94336C23.5163 7.07227 19.8861 8.58301 16.8431 10.4756C13.8001 12.3682 11.3711 14.626 9.55599 17.249C7.74089 19.8721 6.83334 22.6224 6.83334 25.5C6.83334 28.3776 7.74089 31.1279 9.55599 33.751C11.3711 36.374 13.8001 38.6318 16.8431 40.5244C19.8861 42.417 23.5163 43.9277 27.7337 45.0566C31.9512 46.1855 36.3733 46.75 41 46.75C45.6267 46.75 50.0488 46.1855 54.2663 45.0566C58.4837 43.9277 62.1139 42.417 65.1569 40.5244C68.1999 38.6318 70.6289 36.374 72.444 33.751C74.2591 31.1279 75.1667 28.3776 75.1667 25.5ZM41 51C33.5616 51 26.7016 49.86 20.4199 47.5801C14.1382 45.3001 9.1645 42.2067 5.4987 38.2998C1.8329 34.3929 2.14577e-06 30.1263 2.14577e-06 25.5C2.14577e-06 20.8737 1.8329 16.6071 5.4987 12.7002C9.1645 8.79329 14.1382 5.69987 20.4199 3.41992C26.7016 1.13997 33.5616 0 41 0C48.4384 0 55.2984 1.13997 61.5801 3.41992C67.8618 5.69987 72.8355 8.79329 76.5013 12.7002C80.1671 16.6071 82 20.8737 82 25.5C82 30.1263 80.1671 34.3929 76.5013 38.2998C72.8355 42.2067 67.8618 45.3001 61.5801 47.5801C55.2984 49.86 48.4384 51 41 51Z" fill="#f6f4f4"/>
<path d="M124 25.5C124 22.6224 123.07 19.8721 121.211 17.249C119.352 14.626 116.863 12.3682 113.746 10.4756C110.629 8.58301 106.91 7.07227 102.59 5.94336C98.2695 4.81445 93.7396 4.25 89 4.25C84.2604 4.25 79.7305 4.81445 75.4102 5.94336C71.0898 7.07227 67.3711 8.58301 64.2539 10.4756C61.1367 12.3682 58.6484 14.626 56.7891 17.249C54.9297 19.8721 54 22.6224 54 25.5C54 28.3776 54.9297 31.1279 56.7891 33.751C58.6484 36.374 61.1367 38.6318 64.2539 40.5244C67.3711 42.417 71.0898 43.9277 75.4102 45.0566C79.7305 46.1855 84.2604 46.75 89 46.75C93.7396 46.75 98.2695 46.1855 102.59 45.0566C106.91 43.9277 110.629 42.417 113.746 40.5244C116.863 38.6318 119.352 36.374 121.211 33.751C123.07 31.1279 124 28.3776 124 25.5ZM89 51C81.3802 51 74.3529 49.86 67.918 47.5801C61.4831 45.3001 56.388 42.2067 52.6328 38.2998C48.8776 34.3929 47 30.1263 47 25.5C47 20.8737 48.8776 16.6071 52.6328 12.7002C56.388 8.79329 61.4831 5.69987 67.918 3.41992C74.3529 1.13997 81.3802 0 89 0C96.6198 0 103.647 1.13997 110.082 3.41992C116.517 5.69987 121.612 8.79329 125.367 12.7002C129.122 16.6071 131 20.8737 131 25.5C131 30.1263 129.122 34.3929 125.367 38.2998C121.612 42.2067 116.517 45.3001 110.082 47.5801C103.647 49.86 96.6198 51 89 51Z" fill="#f6f4f4"/>
</svg>
